<mxfile host="app.diagrams.net" agent="Mozilla/5.0 (Macintosh; Intel Mac OS X 10_15_7) AppleWebKit/605.1.15 (KHTML, like Gecko) Version/18.0 Safari/605.1.15" version="26.0.11">
  <diagram name="Page-1" id="mf04kfoGBNBnAVeuWzGA">
    <mxGraphModel dx="2385" dy="1618" grid="1" gridSize="10" guides="1" tooltips="1" connect="1" arrows="1" fold="1" page="1" pageScale="1" pageWidth="827" pageHeight="1169" math="0" shadow="0">
      <root>
        <mxCell id="0" />
        <mxCell id="1" parent="0" />
        <mxCell id="COpHMNSTe4zGHhi0yakR-1" value="User" style="rounded=0;whiteSpace=wrap;html=1;" vertex="1" parent="1">
          <mxGeometry x="645" y="250" width="120" height="60" as="geometry" />
        </mxCell>
        <mxCell id="COpHMNSTe4zGHhi0yakR-2" value="Email" style="ellipse;whiteSpace=wrap;html=1;" vertex="1" parent="1">
          <mxGeometry x="780" y="340" width="80" height="50" as="geometry" />
        </mxCell>
        <mxCell id="COpHMNSTe4zGHhi0yakR-3" value="DOB" style="ellipse;whiteSpace=wrap;html=1;" vertex="1" parent="1">
          <mxGeometry x="540" y="165" width="80" height="55" as="geometry" />
        </mxCell>
        <mxCell id="COpHMNSTe4zGHhi0yakR-4" value="Name" style="ellipse;whiteSpace=wrap;html=1;" vertex="1" parent="1">
          <mxGeometry x="690" y="110" width="90" height="60" as="geometry" />
        </mxCell>
        <mxCell id="COpHMNSTe4zGHhi0yakR-5" value="User ID" style="ellipse;whiteSpace=wrap;html=1;align=center;fontStyle=4;" vertex="1" parent="1">
          <mxGeometry x="565" y="90" width="100" height="40" as="geometry" />
        </mxCell>
        <mxCell id="COpHMNSTe4zGHhi0yakR-6" value="Phone No." style="ellipse;shape=doubleEllipse;margin=3;whiteSpace=wrap;html=1;align=center;" vertex="1" parent="1">
          <mxGeometry x="820" y="170" width="100" height="60" as="geometry" />
        </mxCell>
        <mxCell id="COpHMNSTe4zGHhi0yakR-7" value="" style="endArrow=none;html=1;rounded=0;exitX=1;exitY=0.75;exitDx=0;exitDy=0;" edge="1" parent="1" source="COpHMNSTe4zGHhi0yakR-1" target="COpHMNSTe4zGHhi0yakR-2">
          <mxGeometry relative="1" as="geometry">
            <mxPoint x="1005" y="460" as="sourcePoint" />
            <mxPoint x="1165" y="460" as="targetPoint" />
          </mxGeometry>
        </mxCell>
        <mxCell id="COpHMNSTe4zGHhi0yakR-8" value="" style="endArrow=none;html=1;rounded=0;entryX=1;entryY=0.25;entryDx=0;entryDy=0;" edge="1" parent="1" source="COpHMNSTe4zGHhi0yakR-6" target="COpHMNSTe4zGHhi0yakR-1">
          <mxGeometry relative="1" as="geometry">
            <mxPoint x="890" y="256" as="sourcePoint" />
            <mxPoint x="927" y="304" as="targetPoint" />
          </mxGeometry>
        </mxCell>
        <mxCell id="COpHMNSTe4zGHhi0yakR-9" value="" style="endArrow=none;html=1;rounded=0;entryX=0.75;entryY=0;entryDx=0;entryDy=0;" edge="1" parent="1" source="COpHMNSTe4zGHhi0yakR-4" target="COpHMNSTe4zGHhi0yakR-1">
          <mxGeometry relative="1" as="geometry">
            <mxPoint x="900" y="266" as="sourcePoint" />
            <mxPoint x="937" y="314" as="targetPoint" />
          </mxGeometry>
        </mxCell>
        <mxCell id="COpHMNSTe4zGHhi0yakR-10" value="" style="endArrow=none;html=1;rounded=0;exitX=1;exitY=0.5;exitDx=0;exitDy=0;" edge="1" parent="1" source="COpHMNSTe4zGHhi0yakR-87">
          <mxGeometry relative="1" as="geometry">
            <mxPoint x="600" y="170" as="sourcePoint" />
            <mxPoint x="645" y="280" as="targetPoint" />
          </mxGeometry>
        </mxCell>
        <mxCell id="COpHMNSTe4zGHhi0yakR-11" value="" style="endArrow=none;html=1;rounded=0;entryX=0;entryY=0.5;entryDx=0;entryDy=0;" edge="1" parent="1" target="COpHMNSTe4zGHhi0yakR-12">
          <mxGeometry relative="1" as="geometry">
            <mxPoint x="764" y="279.5" as="sourcePoint" />
            <mxPoint x="910" y="280" as="targetPoint" />
          </mxGeometry>
        </mxCell>
        <mxCell id="COpHMNSTe4zGHhi0yakR-12" value="Shop" style="rhombus;whiteSpace=wrap;html=1;" vertex="1" parent="1">
          <mxGeometry x="980" y="240" width="80" height="80" as="geometry" />
        </mxCell>
        <mxCell id="COpHMNSTe4zGHhi0yakR-13" value="" style="endArrow=none;html=1;rounded=0;entryX=0;entryY=0.5;entryDx=0;entryDy=0;exitX=1;exitY=0.5;exitDx=0;exitDy=0;" edge="1" parent="1" source="COpHMNSTe4zGHhi0yakR-12" target="COpHMNSTe4zGHhi0yakR-14">
          <mxGeometry relative="1" as="geometry">
            <mxPoint x="970" y="279.5" as="sourcePoint" />
            <mxPoint x="1050" y="280" as="targetPoint" />
            <Array as="points" />
          </mxGeometry>
        </mxCell>
        <mxCell id="COpHMNSTe4zGHhi0yakR-14" value="Cart" style="rounded=0;whiteSpace=wrap;html=1;" vertex="1" parent="1">
          <mxGeometry x="1181" y="250" width="120" height="60" as="geometry" />
        </mxCell>
        <mxCell id="COpHMNSTe4zGHhi0yakR-15" value="" style="endArrow=none;html=1;rounded=0;entryX=0.25;entryY=0;entryDx=0;entryDy=0;exitX=1;exitY=1;exitDx=0;exitDy=0;" edge="1" parent="1" source="COpHMNSTe4zGHhi0yakR-3" target="COpHMNSTe4zGHhi0yakR-1">
          <mxGeometry relative="1" as="geometry">
            <mxPoint x="640" y="350" as="sourcePoint" />
            <mxPoint x="710" y="320" as="targetPoint" />
          </mxGeometry>
        </mxCell>
        <mxCell id="COpHMNSTe4zGHhi0yakR-16" value="" style="endArrow=none;html=1;rounded=0;exitX=0.5;exitY=1;exitDx=0;exitDy=0;entryX=0.5;entryY=0;entryDx=0;entryDy=0;" edge="1" parent="1" source="COpHMNSTe4zGHhi0yakR-14" target="COpHMNSTe4zGHhi0yakR-17">
          <mxGeometry relative="1" as="geometry">
            <mxPoint x="1301" y="359.5" as="sourcePoint" />
            <mxPoint x="1381" y="335" as="targetPoint" />
          </mxGeometry>
        </mxCell>
        <mxCell id="COpHMNSTe4zGHhi0yakR-17" value="Contains" style="shape=rhombus;perimeter=rhombusPerimeter;whiteSpace=wrap;html=1;align=center;" vertex="1" parent="1">
          <mxGeometry x="1180" y="360" width="120" height="60" as="geometry" />
        </mxCell>
        <mxCell id="COpHMNSTe4zGHhi0yakR-18" value="" style="endArrow=none;html=1;rounded=0;entryX=0.5;entryY=1;entryDx=0;entryDy=0;" edge="1" parent="1" target="COpHMNSTe4zGHhi0yakR-17">
          <mxGeometry relative="1" as="geometry">
            <mxPoint x="1240" y="460" as="sourcePoint" />
            <mxPoint x="1240" y="460" as="targetPoint" />
          </mxGeometry>
        </mxCell>
        <mxCell id="COpHMNSTe4zGHhi0yakR-19" value="Product" style="whiteSpace=wrap;html=1;align=center;" vertex="1" parent="1">
          <mxGeometry x="1190" y="450" width="100" height="40" as="geometry" />
        </mxCell>
        <mxCell id="COpHMNSTe4zGHhi0yakR-20" value="Stock" style="ellipse;whiteSpace=wrap;html=1;align=center;" vertex="1" parent="1">
          <mxGeometry x="1004" y="450" width="100" height="40" as="geometry" />
        </mxCell>
        <mxCell id="COpHMNSTe4zGHhi0yakR-21" value="" style="endArrow=none;html=1;rounded=0;entryX=0;entryY=0.5;entryDx=0;entryDy=0;exitX=1;exitY=0.5;exitDx=0;exitDy=0;" edge="1" parent="1" source="COpHMNSTe4zGHhi0yakR-20" target="COpHMNSTe4zGHhi0yakR-19">
          <mxGeometry relative="1" as="geometry">
            <mxPoint x="1140" y="520" as="sourcePoint" />
            <mxPoint x="1300" y="520" as="targetPoint" />
          </mxGeometry>
        </mxCell>
        <mxCell id="COpHMNSTe4zGHhi0yakR-22" value="MRP" style="ellipse;whiteSpace=wrap;html=1;align=center;" vertex="1" parent="1">
          <mxGeometry x="1004" y="510" width="100" height="40" as="geometry" />
        </mxCell>
        <mxCell id="COpHMNSTe4zGHhi0yakR-23" value="" style="endArrow=none;html=1;rounded=0;entryX=0.5;entryY=0;entryDx=0;entryDy=0;exitX=0;exitY=1;exitDx=0;exitDy=0;" edge="1" parent="1" source="COpHMNSTe4zGHhi0yakR-19" target="COpHMNSTe4zGHhi0yakR-22">
          <mxGeometry relative="1" as="geometry">
            <mxPoint x="1220" y="510" as="sourcePoint" />
            <mxPoint x="1380" y="510" as="targetPoint" />
          </mxGeometry>
        </mxCell>
        <mxCell id="COpHMNSTe4zGHhi0yakR-24" value="" style="endArrow=none;html=1;rounded=0;entryX=0.5;entryY=0;entryDx=0;entryDy=0;" edge="1" parent="1" target="COpHMNSTe4zGHhi0yakR-25">
          <mxGeometry relative="1" as="geometry">
            <mxPoint x="1290" y="490" as="sourcePoint" />
            <mxPoint x="1398" y="522" as="targetPoint" />
          </mxGeometry>
        </mxCell>
        <mxCell id="COpHMNSTe4zGHhi0yakR-25" value="Product ID" style="ellipse;whiteSpace=wrap;html=1;align=center;fontStyle=4;" vertex="1" parent="1">
          <mxGeometry x="1380" y="510" width="100" height="40" as="geometry" />
        </mxCell>
        <mxCell id="COpHMNSTe4zGHhi0yakR-26" value="Cart ID*" style="ellipse;whiteSpace=wrap;html=1;align=center;" vertex="1" parent="1">
          <mxGeometry x="1390" y="450" width="100" height="40" as="geometry" />
        </mxCell>
        <mxCell id="COpHMNSTe4zGHhi0yakR-27" value="" style="endArrow=none;html=1;rounded=0;entryX=0;entryY=0.5;entryDx=0;entryDy=0;" edge="1" parent="1" target="COpHMNSTe4zGHhi0yakR-26">
          <mxGeometry relative="1" as="geometry">
            <mxPoint x="1290" y="469.5" as="sourcePoint" />
            <mxPoint x="1360" y="470" as="targetPoint" />
          </mxGeometry>
        </mxCell>
        <mxCell id="COpHMNSTe4zGHhi0yakR-28" value="User ID*" style="ellipse;whiteSpace=wrap;html=1;align=center;" vertex="1" parent="1">
          <mxGeometry x="1271" y="165" width="100" height="40" as="geometry" />
        </mxCell>
        <mxCell id="COpHMNSTe4zGHhi0yakR-29" value="Cart ID" style="ellipse;whiteSpace=wrap;html=1;align=center;fontStyle=4;" vertex="1" parent="1">
          <mxGeometry x="1130" y="165" width="100" height="40" as="geometry" />
        </mxCell>
        <mxCell id="COpHMNSTe4zGHhi0yakR-30" value="" style="endArrow=none;html=1;rounded=0;entryX=0.5;entryY=1;entryDx=0;entryDy=0;exitX=0.5;exitY=0;exitDx=0;exitDy=0;" edge="1" parent="1" source="COpHMNSTe4zGHhi0yakR-14">
          <mxGeometry relative="1" as="geometry">
            <mxPoint x="1051" y="355" as="sourcePoint" />
            <mxPoint x="1191" y="205" as="targetPoint" />
          </mxGeometry>
        </mxCell>
        <mxCell id="COpHMNSTe4zGHhi0yakR-31" value="" style="endArrow=none;html=1;rounded=0;entryX=0.5;entryY=1;entryDx=0;entryDy=0;exitX=0.75;exitY=0;exitDx=0;exitDy=0;" edge="1" parent="1" source="COpHMNSTe4zGHhi0yakR-14" target="COpHMNSTe4zGHhi0yakR-28">
          <mxGeometry relative="1" as="geometry">
            <mxPoint x="1051" y="355" as="sourcePoint" />
            <mxPoint x="1211" y="355" as="targetPoint" />
          </mxGeometry>
        </mxCell>
        <mxCell id="COpHMNSTe4zGHhi0yakR-32" value="Total Amount" style="ellipse;whiteSpace=wrap;html=1;align=center;dashed=1;" vertex="1" parent="1">
          <mxGeometry x="1331" y="260" width="100" height="40" as="geometry" />
        </mxCell>
        <mxCell id="COpHMNSTe4zGHhi0yakR-33" value="" style="endArrow=none;html=1;rounded=0;entryX=0;entryY=0.5;entryDx=0;entryDy=0;exitX=1;exitY=0.5;exitDx=0;exitDy=0;" edge="1" parent="1" source="COpHMNSTe4zGHhi0yakR-14" target="COpHMNSTe4zGHhi0yakR-32">
          <mxGeometry relative="1" as="geometry">
            <mxPoint x="1061" y="365" as="sourcePoint" />
            <mxPoint x="1221" y="365" as="targetPoint" />
          </mxGeometry>
        </mxCell>
        <mxCell id="COpHMNSTe4zGHhi0yakR-34" value="has" style="shape=rhombus;perimeter=rhombusPerimeter;whiteSpace=wrap;html=1;align=center;" vertex="1" parent="1">
          <mxGeometry x="1181" y="595" width="120" height="60" as="geometry" />
        </mxCell>
        <mxCell id="COpHMNSTe4zGHhi0yakR-35" value="" style="endArrow=none;html=1;rounded=0;entryX=0.5;entryY=1;entryDx=0;entryDy=0;" edge="1" parent="1" target="COpHMNSTe4zGHhi0yakR-34">
          <mxGeometry relative="1" as="geometry">
            <mxPoint x="1240" y="705" as="sourcePoint" />
            <mxPoint x="1290" y="685" as="targetPoint" />
          </mxGeometry>
        </mxCell>
        <mxCell id="COpHMNSTe4zGHhi0yakR-36" value="Product Category" style="whiteSpace=wrap;html=1;align=center;" vertex="1" parent="1">
          <mxGeometry x="1191" y="705" width="100" height="40" as="geometry" />
        </mxCell>
        <mxCell id="COpHMNSTe4zGHhi0yakR-37" value="" style="endArrow=none;html=1;rounded=0;entryX=0;entryY=0.5;entryDx=0;entryDy=0;exitX=1;exitY=0.5;exitDx=0;exitDy=0;" edge="1" parent="1" source="COpHMNSTe4zGHhi0yakR-38" target="COpHMNSTe4zGHhi0yakR-36">
          <mxGeometry relative="1" as="geometry">
            <mxPoint x="1216" y="645" as="sourcePoint" />
            <mxPoint x="1450" y="535" as="targetPoint" />
            <Array as="points" />
          </mxGeometry>
        </mxCell>
        <mxCell id="COpHMNSTe4zGHhi0yakR-38" value="Name" style="ellipse;whiteSpace=wrap;html=1;align=center;" vertex="1" parent="1">
          <mxGeometry x="1040" y="705" width="100" height="40" as="geometry" />
        </mxCell>
        <mxCell id="COpHMNSTe4zGHhi0yakR-39" value="" style="endArrow=none;html=1;rounded=0;exitX=0.5;exitY=1;exitDx=0;exitDy=0;entryX=0.5;entryY=0;entryDx=0;entryDy=0;" edge="1" parent="1" source="COpHMNSTe4zGHhi0yakR-36" target="COpHMNSTe4zGHhi0yakR-40">
          <mxGeometry relative="1" as="geometry">
            <mxPoint x="1240" y="815" as="sourcePoint" />
            <mxPoint x="1240" y="785" as="targetPoint" />
          </mxGeometry>
        </mxCell>
        <mxCell id="COpHMNSTe4zGHhi0yakR-40" value="Description" style="ellipse;whiteSpace=wrap;html=1;align=center;" vertex="1" parent="1">
          <mxGeometry x="1191" y="780" width="100" height="40" as="geometry" />
        </mxCell>
        <mxCell id="COpHMNSTe4zGHhi0yakR-41" value="" style="endArrow=none;html=1;rounded=0;entryX=0.5;entryY=0;entryDx=0;entryDy=0;" edge="1" parent="1" target="COpHMNSTe4zGHhi0yakR-42">
          <mxGeometry relative="1" as="geometry">
            <mxPoint x="719" y="310" as="sourcePoint" />
            <mxPoint x="720" y="610" as="targetPoint" />
          </mxGeometry>
        </mxCell>
        <mxCell id="COpHMNSTe4zGHhi0yakR-42" value="Places" style="shape=rhombus;perimeter=rhombusPerimeter;whiteSpace=wrap;html=1;align=center;" vertex="1" parent="1">
          <mxGeometry x="660" y="595" width="120" height="60" as="geometry" />
        </mxCell>
        <mxCell id="COpHMNSTe4zGHhi0yakR-43" value="Order" style="whiteSpace=wrap;html=1;align=center;" vertex="1" parent="1">
          <mxGeometry x="670" y="990" width="100" height="40" as="geometry" />
        </mxCell>
        <mxCell id="COpHMNSTe4zGHhi0yakR-44" value="" style="endArrow=none;html=1;rounded=0;exitX=0.5;exitY=1;exitDx=0;exitDy=0;entryX=0.5;entryY=0;entryDx=0;entryDy=0;" edge="1" parent="1" source="COpHMNSTe4zGHhi0yakR-42" target="COpHMNSTe4zGHhi0yakR-43">
          <mxGeometry relative="1" as="geometry">
            <mxPoint x="705" y="880" as="sourcePoint" />
            <mxPoint x="710" y="990" as="targetPoint" />
          </mxGeometry>
        </mxCell>
        <mxCell id="COpHMNSTe4zGHhi0yakR-45" value="amount" style="ellipse;whiteSpace=wrap;html=1;align=center;" vertex="1" parent="1">
          <mxGeometry x="790" y="922.5" width="100" height="40" as="geometry" />
        </mxCell>
        <mxCell id="COpHMNSTe4zGHhi0yakR-46" value="" style="endArrow=none;html=1;rounded=0;exitX=0.75;exitY=0;exitDx=0;exitDy=0;entryX=0;entryY=0.5;entryDx=0;entryDy=0;" edge="1" parent="1" source="COpHMNSTe4zGHhi0yakR-43" target="COpHMNSTe4zGHhi0yakR-45">
          <mxGeometry relative="1" as="geometry">
            <mxPoint x="850" y="925" as="sourcePoint" />
            <mxPoint x="1010" y="925" as="targetPoint" />
            <Array as="points" />
          </mxGeometry>
        </mxCell>
        <mxCell id="COpHMNSTe4zGHhi0yakR-47" value="" style="endArrow=none;html=1;rounded=0;entryX=0.5;entryY=0;entryDx=0;entryDy=0;" edge="1" parent="1" source="COpHMNSTe4zGHhi0yakR-43" target="COpHMNSTe4zGHhi0yakR-48">
          <mxGeometry relative="1" as="geometry">
            <mxPoint x="781" y="1065" as="sourcePoint" />
            <mxPoint x="830" y="1045" as="targetPoint" />
          </mxGeometry>
        </mxCell>
        <mxCell id="COpHMNSTe4zGHhi0yakR-48" value="Order ID" style="ellipse;whiteSpace=wrap;html=1;align=center;fontStyle=4;" vertex="1" parent="1">
          <mxGeometry x="790" y="1082.5" width="100" height="40" as="geometry" />
        </mxCell>
        <mxCell id="COpHMNSTe4zGHhi0yakR-49" value="U-ID*" style="ellipse;whiteSpace=wrap;html=1;align=center;" vertex="1" parent="1">
          <mxGeometry x="580" y="1082.5" width="100" height="40" as="geometry" />
        </mxCell>
        <mxCell id="COpHMNSTe4zGHhi0yakR-50" value="" style="endArrow=none;html=1;rounded=0;entryX=0.25;entryY=1;entryDx=0;entryDy=0;exitX=0.5;exitY=0;exitDx=0;exitDy=0;" edge="1" parent="1" source="COpHMNSTe4zGHhi0yakR-49" target="COpHMNSTe4zGHhi0yakR-43">
          <mxGeometry relative="1" as="geometry">
            <mxPoint x="630" y="1044.5" as="sourcePoint" />
            <mxPoint x="790" y="1044.5" as="targetPoint" />
          </mxGeometry>
        </mxCell>
        <mxCell id="COpHMNSTe4zGHhi0yakR-51" value="" style="endArrow=none;html=1;rounded=0;entryX=0;entryY=0.5;entryDx=0;entryDy=0;exitX=1;exitY=0.5;exitDx=0;exitDy=0;" edge="1" parent="1" source="COpHMNSTe4zGHhi0yakR-43" target="COpHMNSTe4zGHhi0yakR-52">
          <mxGeometry relative="1" as="geometry">
            <mxPoint x="760" y="800" as="sourcePoint" />
            <mxPoint x="900" y="950" as="targetPoint" />
          </mxGeometry>
        </mxCell>
        <mxCell id="COpHMNSTe4zGHhi0yakR-52" value="has" style="shape=rhombus;perimeter=rhombusPerimeter;whiteSpace=wrap;html=1;align=center;" vertex="1" parent="1">
          <mxGeometry x="970" y="980" width="120" height="60" as="geometry" />
        </mxCell>
        <mxCell id="COpHMNSTe4zGHhi0yakR-53" value="" style="endArrow=none;html=1;rounded=0;exitX=1;exitY=0.5;exitDx=0;exitDy=0;entryX=0;entryY=0.5;entryDx=0;entryDy=0;" edge="1" parent="1" source="COpHMNSTe4zGHhi0yakR-52" target="COpHMNSTe4zGHhi0yakR-54">
          <mxGeometry relative="1" as="geometry">
            <mxPoint x="1284" y="990" as="sourcePoint" />
            <mxPoint x="1324" y="990" as="targetPoint" />
          </mxGeometry>
        </mxCell>
        <mxCell id="COpHMNSTe4zGHhi0yakR-54" value="shipping" style="whiteSpace=wrap;html=1;align=center;" vertex="1" parent="1">
          <mxGeometry x="1284" y="990" width="100" height="40" as="geometry" />
        </mxCell>
        <mxCell id="COpHMNSTe4zGHhi0yakR-55" value="" style="endArrow=none;html=1;rounded=0;entryX=0.5;entryY=1;entryDx=0;entryDy=0;exitX=0.5;exitY=0;exitDx=0;exitDy=0;" edge="1" parent="1" source="COpHMNSTe4zGHhi0yakR-54" target="COpHMNSTe4zGHhi0yakR-56">
          <mxGeometry relative="1" as="geometry">
            <mxPoint x="1359" y="990" as="sourcePoint" />
            <mxPoint x="1404" y="950" as="targetPoint" />
          </mxGeometry>
        </mxCell>
        <mxCell id="COpHMNSTe4zGHhi0yakR-56" value="Shipping ID" style="ellipse;whiteSpace=wrap;html=1;align=center;fontStyle=4;" vertex="1" parent="1">
          <mxGeometry x="1191" y="920" width="100" height="40" as="geometry" />
        </mxCell>
        <mxCell id="COpHMNSTe4zGHhi0yakR-57" value="" style="endArrow=none;html=1;rounded=0;exitX=0.75;exitY=0;exitDx=0;exitDy=0;entryX=0;entryY=1;entryDx=0;entryDy=0;" edge="1" parent="1" source="COpHMNSTe4zGHhi0yakR-54" target="COpHMNSTe4zGHhi0yakR-58">
          <mxGeometry relative="1" as="geometry">
            <mxPoint x="1324" y="1070" as="sourcePoint" />
            <mxPoint x="1484" y="1010" as="targetPoint" />
          </mxGeometry>
        </mxCell>
        <mxCell id="COpHMNSTe4zGHhi0yakR-58" value="Tracking Details" style="ellipse;whiteSpace=wrap;html=1;align=center;" vertex="1" parent="1">
          <mxGeometry x="1410" y="922.5" width="100" height="40" as="geometry" />
        </mxCell>
        <mxCell id="COpHMNSTe4zGHhi0yakR-59" value="Order ID*" style="ellipse;whiteSpace=wrap;html=1;align=center;" vertex="1" parent="1">
          <mxGeometry x="1410" y="1082.5" width="100" height="40" as="geometry" />
        </mxCell>
        <mxCell id="COpHMNSTe4zGHhi0yakR-60" value="" style="endArrow=none;html=1;rounded=0;entryX=0.75;entryY=1;entryDx=0;entryDy=0;exitX=0.5;exitY=0;exitDx=0;exitDy=0;" edge="1" parent="1" source="COpHMNSTe4zGHhi0yakR-59" target="COpHMNSTe4zGHhi0yakR-54">
          <mxGeometry relative="1" as="geometry">
            <mxPoint x="1074" y="900" as="sourcePoint" />
            <mxPoint x="1234" y="900" as="targetPoint" />
          </mxGeometry>
        </mxCell>
        <mxCell id="COpHMNSTe4zGHhi0yakR-61" value="" style="endArrow=none;html=1;rounded=0;entryX=0.25;entryY=1;entryDx=0;entryDy=0;" edge="1" parent="1" target="COpHMNSTe4zGHhi0yakR-54" source="COpHMNSTe4zGHhi0yakR-62">
          <mxGeometry relative="1" as="geometry">
            <mxPoint x="1204" y="1010" as="sourcePoint" />
            <mxPoint x="1234" y="900" as="targetPoint" />
          </mxGeometry>
        </mxCell>
        <mxCell id="COpHMNSTe4zGHhi0yakR-62" value="Shipping label" style="ellipse;whiteSpace=wrap;html=1;align=center;" vertex="1" parent="1">
          <mxGeometry x="1190" y="1082.5" width="100" height="40" as="geometry" />
        </mxCell>
        <mxCell id="COpHMNSTe4zGHhi0yakR-63" value="" style="shape=link;html=1;rounded=0;entryX=0;entryY=0.5;entryDx=0;entryDy=0;exitX=1;exitY=0.5;exitDx=0;exitDy=0;" edge="1" parent="1" source="COpHMNSTe4zGHhi0yakR-64" target="COpHMNSTe4zGHhi0yakR-43">
          <mxGeometry width="100" relative="1" as="geometry">
            <mxPoint x="550" y="1115" as="sourcePoint" />
            <mxPoint x="650" y="1115" as="targetPoint" />
          </mxGeometry>
        </mxCell>
        <mxCell id="COpHMNSTe4zGHhi0yakR-64" value="For" style="rhombus;whiteSpace=wrap;html=1;" vertex="1" parent="1">
          <mxGeometry x="390" y="970" width="80" height="80" as="geometry" />
        </mxCell>
        <mxCell id="COpHMNSTe4zGHhi0yakR-65" value="" style="shape=link;html=1;rounded=0;entryX=0;entryY=0.5;entryDx=0;entryDy=0;exitX=1;exitY=0.5;exitDx=0;exitDy=0;" edge="1" parent="1" source="COpHMNSTe4zGHhi0yakR-66" target="COpHMNSTe4zGHhi0yakR-64">
          <mxGeometry width="100" relative="1" as="geometry">
            <mxPoint x="460" y="1010" as="sourcePoint" />
            <mxPoint x="660" y="910" as="targetPoint" />
          </mxGeometry>
        </mxCell>
        <mxCell id="COpHMNSTe4zGHhi0yakR-66" value="payments" style="whiteSpace=wrap;html=1;align=center;" vertex="1" parent="1">
          <mxGeometry x="170" y="992.5" width="100" height="40" as="geometry" />
        </mxCell>
        <mxCell id="COpHMNSTe4zGHhi0yakR-67" value="method" style="ellipse;whiteSpace=wrap;html=1;align=center;" vertex="1" parent="1">
          <mxGeometry x="300" y="1082.5" width="100" height="40" as="geometry" />
        </mxCell>
        <mxCell id="COpHMNSTe4zGHhi0yakR-68" value="order id*" style="ellipse;whiteSpace=wrap;html=1;align=center;" vertex="1" parent="1">
          <mxGeometry x="170" y="1082.5" width="100" height="40" as="geometry" />
        </mxCell>
        <mxCell id="COpHMNSTe4zGHhi0yakR-69" value="date of payments" style="ellipse;whiteSpace=wrap;html=1;align=center;" vertex="1" parent="1">
          <mxGeometry x="40" y="922.5" width="100" height="40" as="geometry" />
        </mxCell>
        <mxCell id="COpHMNSTe4zGHhi0yakR-70" value="User ID*" style="ellipse;whiteSpace=wrap;html=1;align=center;" vertex="1" parent="1">
          <mxGeometry x="40" y="1082.5" width="100" height="40" as="geometry" />
        </mxCell>
        <mxCell id="COpHMNSTe4zGHhi0yakR-71" value="payment id" style="ellipse;whiteSpace=wrap;html=1;align=center;fontStyle=4;" vertex="1" parent="1">
          <mxGeometry x="300" y="922.5" width="100" height="40" as="geometry" />
        </mxCell>
        <mxCell id="COpHMNSTe4zGHhi0yakR-72" value="" style="endArrow=none;html=1;rounded=0;exitX=0;exitY=0.5;exitDx=0;exitDy=0;entryX=0.75;entryY=0;entryDx=0;entryDy=0;" edge="1" parent="1" source="COpHMNSTe4zGHhi0yakR-71" target="COpHMNSTe4zGHhi0yakR-66">
          <mxGeometry width="50" height="50" relative="1" as="geometry">
            <mxPoint x="350" y="957.5" as="sourcePoint" />
            <mxPoint x="690" y="1332.5" as="targetPoint" />
          </mxGeometry>
        </mxCell>
        <mxCell id="COpHMNSTe4zGHhi0yakR-73" value="" style="endArrow=none;html=1;rounded=0;exitX=0.5;exitY=0;exitDx=0;exitDy=0;entryX=0.75;entryY=1;entryDx=0;entryDy=0;" edge="1" parent="1" source="COpHMNSTe4zGHhi0yakR-67" target="COpHMNSTe4zGHhi0yakR-66">
          <mxGeometry width="50" height="50" relative="1" as="geometry">
            <mxPoint x="640" y="1382.5" as="sourcePoint" />
            <mxPoint x="690" y="1332.5" as="targetPoint" />
          </mxGeometry>
        </mxCell>
        <mxCell id="COpHMNSTe4zGHhi0yakR-74" value="" style="endArrow=none;html=1;rounded=0;exitX=1;exitY=0.5;exitDx=0;exitDy=0;entryX=0.25;entryY=1;entryDx=0;entryDy=0;" edge="1" parent="1" source="COpHMNSTe4zGHhi0yakR-70" target="COpHMNSTe4zGHhi0yakR-66">
          <mxGeometry width="50" height="50" relative="1" as="geometry">
            <mxPoint x="640" y="1382.5" as="sourcePoint" />
            <mxPoint x="690" y="1332.5" as="targetPoint" />
          </mxGeometry>
        </mxCell>
        <mxCell id="COpHMNSTe4zGHhi0yakR-75" value="" style="endArrow=none;html=1;rounded=0;exitX=0.5;exitY=0;exitDx=0;exitDy=0;entryX=0.5;entryY=1;entryDx=0;entryDy=0;" edge="1" parent="1" source="COpHMNSTe4zGHhi0yakR-68" target="COpHMNSTe4zGHhi0yakR-66">
          <mxGeometry width="50" height="50" relative="1" as="geometry">
            <mxPoint x="640" y="1382.5" as="sourcePoint" />
            <mxPoint x="310" y="1392.5" as="targetPoint" />
          </mxGeometry>
        </mxCell>
        <mxCell id="COpHMNSTe4zGHhi0yakR-76" value="" style="endArrow=none;html=1;rounded=0;entryX=0.25;entryY=0;entryDx=0;entryDy=0;exitX=0.5;exitY=1;exitDx=0;exitDy=0;" edge="1" parent="1" source="COpHMNSTe4zGHhi0yakR-69" target="COpHMNSTe4zGHhi0yakR-66">
          <mxGeometry width="50" height="50" relative="1" as="geometry">
            <mxPoint x="120" y="1342.5" as="sourcePoint" />
            <mxPoint x="690" y="1332.5" as="targetPoint" />
          </mxGeometry>
        </mxCell>
        <mxCell id="COpHMNSTe4zGHhi0yakR-77" value="" style="endArrow=none;html=1;rounded=0;entryX=0.25;entryY=1;entryDx=0;entryDy=0;" edge="1" parent="1" source="COpHMNSTe4zGHhi0yakR-78" target="COpHMNSTe4zGHhi0yakR-1">
          <mxGeometry width="50" height="50" relative="1" as="geometry">
            <mxPoint x="260" y="370" as="sourcePoint" />
            <mxPoint x="850" y="500" as="targetPoint" />
          </mxGeometry>
        </mxCell>
        <mxCell id="COpHMNSTe4zGHhi0yakR-78" value="Makes" style="rhombus;whiteSpace=wrap;html=1;" vertex="1" parent="1">
          <mxGeometry x="180" y="585" width="80" height="80" as="geometry" />
        </mxCell>
        <mxCell id="COpHMNSTe4zGHhi0yakR-79" value="" style="shape=link;html=1;rounded=0;entryX=0.5;entryY=0;entryDx=0;entryDy=0;exitX=0.5;exitY=1;exitDx=0;exitDy=0;" edge="1" parent="1" source="COpHMNSTe4zGHhi0yakR-78" target="COpHMNSTe4zGHhi0yakR-66">
          <mxGeometry width="100" relative="1" as="geometry">
            <mxPoint x="250" y="810" as="sourcePoint" />
            <mxPoint x="70" y="1190" as="targetPoint" />
          </mxGeometry>
        </mxCell>
        <mxCell id="COpHMNSTe4zGHhi0yakR-80" value="Address" style="whiteSpace=wrap;html=1;align=center;" vertex="1" parent="1">
          <mxGeometry x="210" y="260" width="100" height="40" as="geometry" />
        </mxCell>
        <mxCell id="COpHMNSTe4zGHhi0yakR-81" value="House" style="ellipse;whiteSpace=wrap;html=1;align=center;" vertex="1" parent="1">
          <mxGeometry x="60" y="220" width="100" height="40" as="geometry" />
        </mxCell>
        <mxCell id="COpHMNSTe4zGHhi0yakR-82" value="User ID*" style="ellipse;whiteSpace=wrap;html=1;align=center;" vertex="1" parent="1">
          <mxGeometry x="150" y="160" width="100" height="40" as="geometry" />
        </mxCell>
        <mxCell id="COpHMNSTe4zGHhi0yakR-83" value="address ID" style="ellipse;whiteSpace=wrap;html=1;align=center;" vertex="1" parent="1">
          <mxGeometry x="40" y="290" width="100" height="40" as="geometry" />
        </mxCell>
        <mxCell id="COpHMNSTe4zGHhi0yakR-84" value="State" style="ellipse;whiteSpace=wrap;html=1;align=center;" vertex="1" parent="1">
          <mxGeometry x="300" y="160" width="100" height="40" as="geometry" />
        </mxCell>
        <mxCell id="COpHMNSTe4zGHhi0yakR-85" value="Pincode" style="ellipse;whiteSpace=wrap;html=1;align=center;" vertex="1" parent="1">
          <mxGeometry x="190" y="360" width="100" height="40" as="geometry" />
        </mxCell>
        <mxCell id="COpHMNSTe4zGHhi0yakR-86" value="City" style="ellipse;whiteSpace=wrap;html=1;align=center;" vertex="1" parent="1">
          <mxGeometry x="60" y="360" width="100" height="40" as="geometry" />
        </mxCell>
        <mxCell id="COpHMNSTe4zGHhi0yakR-87" value="Stays" style="shape=rhombus;perimeter=rhombusPerimeter;whiteSpace=wrap;html=1;align=center;" vertex="1" parent="1">
          <mxGeometry x="390" y="250" width="120" height="60" as="geometry" />
        </mxCell>
        <mxCell id="COpHMNSTe4zGHhi0yakR-88" value="" style="endArrow=none;html=1;rounded=0;exitX=1;exitY=0.5;exitDx=0;exitDy=0;entryX=0;entryY=0.5;entryDx=0;entryDy=0;" edge="1" parent="1" source="COpHMNSTe4zGHhi0yakR-80" target="COpHMNSTe4zGHhi0yakR-87">
          <mxGeometry relative="1" as="geometry">
            <mxPoint x="470" y="50" as="sourcePoint" />
            <mxPoint x="410" y="180" as="targetPoint" />
          </mxGeometry>
        </mxCell>
        <mxCell id="COpHMNSTe4zGHhi0yakR-89" value="" style="endArrow=none;html=1;rounded=0;exitX=0.75;exitY=1;exitDx=0;exitDy=0;entryX=0.5;entryY=0;entryDx=0;entryDy=0;" edge="1" parent="1" source="COpHMNSTe4zGHhi0yakR-80" target="COpHMNSTe4zGHhi0yakR-85">
          <mxGeometry relative="1" as="geometry">
            <mxPoint x="270" y="310" as="sourcePoint" />
            <mxPoint x="340" y="395" as="targetPoint" />
            <Array as="points" />
          </mxGeometry>
        </mxCell>
        <mxCell id="COpHMNSTe4zGHhi0yakR-90" value="" style="endArrow=none;html=1;rounded=0;entryX=0.5;entryY=0;entryDx=0;entryDy=0;exitX=0.5;exitY=1;exitDx=0;exitDy=0;" edge="1" parent="1" source="COpHMNSTe4zGHhi0yakR-80" target="COpHMNSTe4zGHhi0yakR-86">
          <mxGeometry width="50" height="50" relative="1" as="geometry">
            <mxPoint x="260" y="310" as="sourcePoint" />
            <mxPoint x="400" y="380" as="targetPoint" />
          </mxGeometry>
        </mxCell>
        <mxCell id="COpHMNSTe4zGHhi0yakR-91" value="" style="endArrow=none;html=1;rounded=0;entryX=0.297;entryY=0.967;entryDx=0;entryDy=0;entryPerimeter=0;exitX=0.75;exitY=0;exitDx=0;exitDy=0;" edge="1" parent="1" source="COpHMNSTe4zGHhi0yakR-80" target="COpHMNSTe4zGHhi0yakR-84">
          <mxGeometry width="50" height="50" relative="1" as="geometry">
            <mxPoint x="350" y="430" as="sourcePoint" />
            <mxPoint x="400" y="380" as="targetPoint" />
          </mxGeometry>
        </mxCell>
        <mxCell id="COpHMNSTe4zGHhi0yakR-92" value="" style="endArrow=none;html=1;rounded=0;entryX=0.605;entryY=1.029;entryDx=0;entryDy=0;entryPerimeter=0;" edge="1" parent="1" target="COpHMNSTe4zGHhi0yakR-82">
          <mxGeometry width="50" height="50" relative="1" as="geometry">
            <mxPoint x="250" y="260" as="sourcePoint" />
            <mxPoint x="400" y="380" as="targetPoint" />
          </mxGeometry>
        </mxCell>
        <mxCell id="COpHMNSTe4zGHhi0yakR-93" value="" style="endArrow=none;html=1;rounded=0;entryX=0.913;entryY=0.758;entryDx=0;entryDy=0;entryPerimeter=0;exitX=0;exitY=0.5;exitDx=0;exitDy=0;" edge="1" parent="1" source="COpHMNSTe4zGHhi0yakR-80" target="COpHMNSTe4zGHhi0yakR-81">
          <mxGeometry width="50" height="50" relative="1" as="geometry">
            <mxPoint x="350" y="430" as="sourcePoint" />
            <mxPoint x="400" y="380" as="targetPoint" />
          </mxGeometry>
        </mxCell>
        <mxCell id="COpHMNSTe4zGHhi0yakR-94" value="" style="endArrow=none;html=1;rounded=0;entryX=1;entryY=0.5;entryDx=0;entryDy=0;exitX=0;exitY=1;exitDx=0;exitDy=0;" edge="1" parent="1" source="COpHMNSTe4zGHhi0yakR-80" target="COpHMNSTe4zGHhi0yakR-83">
          <mxGeometry width="50" height="50" relative="1" as="geometry">
            <mxPoint x="350" y="430" as="sourcePoint" />
            <mxPoint x="400" y="380" as="targetPoint" />
          </mxGeometry>
        </mxCell>
        <mxCell id="COpHMNSTe4zGHhi0yakR-95" value="" style="endArrow=none;html=1;rounded=0;exitX=0.5;exitY=0;exitDx=0;exitDy=0;entryX=0.5;entryY=1;entryDx=0;entryDy=0;" edge="1" parent="1" source="COpHMNSTe4zGHhi0yakR-4" target="COpHMNSTe4zGHhi0yakR-97">
          <mxGeometry width="50" height="50" relative="1" as="geometry">
            <mxPoint x="920" y="170" as="sourcePoint" />
            <mxPoint x="830" y="60" as="targetPoint" />
          </mxGeometry>
        </mxCell>
        <mxCell id="COpHMNSTe4zGHhi0yakR-96" value="" style="endArrow=none;html=1;rounded=0;exitX=0.978;exitY=0.35;exitDx=0;exitDy=0;exitPerimeter=0;entryX=0;entryY=0.5;entryDx=0;entryDy=0;" edge="1" parent="1" source="COpHMNSTe4zGHhi0yakR-4" target="COpHMNSTe4zGHhi0yakR-98">
          <mxGeometry width="50" height="50" relative="1" as="geometry">
            <mxPoint x="920" y="170" as="sourcePoint" />
            <mxPoint x="960" y="80" as="targetPoint" />
          </mxGeometry>
        </mxCell>
        <mxCell id="COpHMNSTe4zGHhi0yakR-97" value="First Name" style="ellipse;whiteSpace=wrap;html=1;align=center;" vertex="1" parent="1">
          <mxGeometry x="710" y="40" width="100" height="40" as="geometry" />
        </mxCell>
        <mxCell id="COpHMNSTe4zGHhi0yakR-98" value="Last Name" style="ellipse;whiteSpace=wrap;html=1;align=center;" vertex="1" parent="1">
          <mxGeometry x="860" y="90" width="90" height="40" as="geometry" />
        </mxCell>
        <mxCell id="COpHMNSTe4zGHhi0yakR-99" value="cat-id" style="ellipse;whiteSpace=wrap;html=1;align=center;" vertex="1" parent="1">
          <mxGeometry x="1360" y="705" width="100" height="40" as="geometry" />
        </mxCell>
        <mxCell id="COpHMNSTe4zGHhi0yakR-100" value="" style="endArrow=none;html=1;rounded=0;entryX=1;entryY=0.5;entryDx=0;entryDy=0;exitX=0;exitY=0.5;exitDx=0;exitDy=0;" edge="1" parent="1" source="COpHMNSTe4zGHhi0yakR-99" target="COpHMNSTe4zGHhi0yakR-36">
          <mxGeometry relative="1" as="geometry">
            <mxPoint x="1226" y="655" as="sourcePoint" />
            <mxPoint x="1226" y="715" as="targetPoint" />
            <Array as="points" />
          </mxGeometry>
        </mxCell>
        <mxCell id="COpHMNSTe4zGHhi0yakR-101" value="" style="endArrow=none;html=1;rounded=0;entryX=0.5;entryY=1;entryDx=0;entryDy=0;exitX=0.5;exitY=0;exitDx=0;exitDy=0;" edge="1" parent="1" source="COpHMNSTe4zGHhi0yakR-1" target="COpHMNSTe4zGHhi0yakR-5">
          <mxGeometry width="50" height="50" relative="1" as="geometry">
            <mxPoint x="660" y="560" as="sourcePoint" />
            <mxPoint x="710" y="510" as="targetPoint" />
          </mxGeometry>
        </mxCell>
        <mxCell id="COpHMNSTe4zGHhi0yakR-102" value="" style="endArrow=none;html=1;rounded=0;entryX=0.5;entryY=1;entryDx=0;entryDy=0;exitX=0.5;exitY=0;exitDx=0;exitDy=0;" edge="1" parent="1" source="COpHMNSTe4zGHhi0yakR-34" target="COpHMNSTe4zGHhi0yakR-19">
          <mxGeometry width="50" height="50" relative="1" as="geometry">
            <mxPoint x="1240" y="590" as="sourcePoint" />
            <mxPoint x="1110" y="570" as="targetPoint" />
          </mxGeometry>
        </mxCell>
      </root>
    </mxGraphModel>
  </diagram>
</mxfile>
